<svg width="41" height="64" viewBox="0 0 41 64" fill="none" xmlns="http://www.w3.org/2000/svg">
<path d="M11.571 36.0067H29.429C30.1078 36.0068 30.7641 35.7621 31.278 35.3172C31.7919 34.8724 32.1291 34.2572 32.2283 33.5838C32.3274 32.9103 32.1818 32.2236 31.8179 31.6489C31.4541 31.0742 30.8964 30.6498 30.2464 30.4531V29.1343C30.2437 27.1482 29.5494 25.2253 28.2834 23.6977C27.0174 22.1701 25.2593 21.1337 23.3125 20.7675C23.552 20.2868 23.665 19.7527 23.6408 19.2159C23.6166 18.6792 23.456 18.1575 23.1743 17.7005C22.8925 17.2434 22.4989 16.8662 22.0309 16.6046C21.5628 16.3429 21.0359 16.2056 20.5 16.2056C19.9641 16.2056 19.4372 16.3429 18.9691 16.6046C18.5011 16.8662 18.1075 17.2434 17.8257 17.7005C17.544 18.1575 17.3834 18.6792 17.3592 19.2159C17.335 19.7527 17.448 20.2868 17.6875 20.7675C15.7407 21.1337 13.9826 22.1701 12.7166 23.6977C11.4506 25.2253 10.7563 27.1482 10.7536 29.1343V30.4531C10.1036 30.6498 9.54588 31.0742 9.18206 31.6489C8.81824 32.2236 8.6726 32.9103 8.77173 33.5838C8.87086 34.2572 9.20814 34.8724 9.72204 35.3172C10.2359 35.7621 10.8922 36.0068 11.571 36.0067ZM20.5 18.0998C20.7487 18.0998 20.9919 18.1737 21.1987 18.3123C21.4055 18.4508 21.5666 18.6478 21.6618 18.8782C21.757 19.1086 21.7819 19.3622 21.7334 19.6068C21.6849 19.8514 21.5651 20.0761 21.3892 20.2524C21.2133 20.4288 20.9893 20.5489 20.7453 20.5975C20.5014 20.6462 20.2485 20.6212 20.0188 20.5258C19.789 20.4303 19.5926 20.2687 19.4544 20.0613C19.3162 19.854 19.2425 19.6102 19.2425 19.3608C19.2428 19.0264 19.3754 18.7059 19.6112 18.4695C19.8469 18.2331 20.1666 18.1001 20.5 18.0998ZM12.6401 29.1343C12.6421 27.379 13.3383 25.6961 14.5762 24.4549C15.814 23.2136 17.4923 22.5154 19.2428 22.5134H21.7572C23.5077 22.5154 25.186 23.2136 26.4238 24.4549C27.6617 25.6961 28.3579 27.379 28.3599 29.1343V30.3319H12.6401V29.1343ZM11.571 32.2236H29.429C29.5528 32.2236 29.6755 32.2481 29.7899 32.2956C29.9043 32.3431 30.0083 32.4128 30.0958 32.5006C30.1834 32.5884 30.2529 32.6927 30.3003 32.8074C30.3477 32.9221 30.3721 33.0451 30.3721 33.1693C30.3721 33.2935 30.3477 33.4165 30.3003 33.5312C30.2529 33.646 30.1834 33.7502 30.0958 33.838C30.0083 33.9259 29.9043 33.9955 29.7899 34.043C29.6755 34.0906 29.5528 34.115 29.429 34.115H11.571C11.4472 34.115 11.3246 34.0906 11.2101 34.043C11.0957 33.9955 10.9917 33.9259 10.9042 33.838C10.8166 33.7502 10.7471 33.646 10.6997 33.5312C10.6523 33.4165 10.6279 33.2935 10.6279 33.1693C10.6279 33.0451 10.6523 32.9221 10.6997 32.8074C10.7471 32.6927 10.8166 32.5884 10.9042 32.5006C10.9917 32.4128 11.0957 32.3431 11.2101 32.2956C11.3246 32.2481 11.4472 32.2236 11.571 32.2236ZM34.3972 56.4333H17.5445C17.2943 56.4333 17.0544 56.5329 16.8775 56.7103C16.7006 56.8877 16.6012 57.1282 16.6012 57.3791C16.6012 57.63 16.7006 57.8705 16.8775 58.0479C17.0544 58.2253 17.2943 58.3249 17.5445 58.3249H34.3972C34.6474 58.3249 34.8873 58.2253 35.0642 58.0479C35.2411 57.8705 35.3405 57.63 35.3405 57.3791C35.3405 57.1282 35.2411 56.8877 35.0642 56.7103C34.8873 56.5329 34.6474 56.4333 34.3972 56.4333ZM34.3972 39.9033H17.5445C17.2943 39.9033 17.0544 40.0029 16.8775 40.1803C16.7006 40.3577 16.6012 40.5983 16.6012 40.8491C16.6012 41.1 16.7006 41.3406 16.8775 41.5179C17.0544 41.6953 17.2943 41.795 17.5445 41.795H34.3972C34.6474 41.795 34.8873 41.6953 35.0642 41.5179C35.2411 41.3406 35.3405 41.1 35.3405 40.8491C35.3405 40.5983 35.2411 40.3577 35.0642 40.1803C34.8873 40.0029 34.6474 39.9033 34.3972 39.9033ZM11.885 51.1365H6.60276C6.47889 51.1365 6.35623 51.161 6.24178 51.2085C6.12734 51.256 6.02335 51.3257 5.93576 51.4135C5.84817 51.5014 5.77869 51.6056 5.73129 51.7204C5.68389 51.8352 5.6595 51.9582 5.65951 52.0824V57.3791C5.6595 57.5033 5.68389 57.6263 5.73129 57.7411C5.77869 57.8558 5.84817 57.9601 5.93576 58.0479C6.02335 58.1358 6.12734 58.2054 6.24178 58.253C6.35623 58.3005 6.47889 58.3249 6.60276 58.3249H11.885C12.0088 58.3249 12.1315 58.3005 12.2459 58.253C12.3604 58.2054 12.4644 58.1358 12.552 58.0479C12.6396 57.9601 12.709 57.8558 12.7564 57.7411C12.8038 57.6263 12.8282 57.5033 12.8282 57.3791V52.0824C12.8282 51.9582 12.8038 51.8352 12.7564 51.7204C12.709 51.6056 12.6396 51.5014 12.552 51.4135C12.4644 51.3257 12.3604 51.256 12.2459 51.2085C12.1315 51.161 12.0088 51.1365 11.885 51.1365ZM10.9417 56.4333H7.54601V53.0282H10.9417V56.4333ZM38.7991 10.7806H31.5675V2.20688C31.5675 1.84924 31.4808 1.49696 31.3148 1.18037C31.1489 0.863786 30.9088 0.592369 30.6151 0.389487C30.3214 0.186605 29.9829 0.058337 29.6287 0.0157234C29.2746 -0.0268901 28.9155 0.0174277 28.5822 0.144862L0.607095 10.8426C0.603104 10.8441 0.599451 10.8462 0.595489 10.8477C0.577035 10.8551 0.559042 10.8633 0.541172 10.8717C0.529965 10.877 0.518727 10.8822 0.507827 10.8878C0.492813 10.8957 0.478258 10.9043 0.463736 10.9129C0.450746 10.9206 0.437728 10.9281 0.425231 10.9363C0.413932 10.9438 0.403123 10.9519 0.392161 10.9598C0.37773 10.9702 0.363299 10.9806 0.349574 10.9918C0.340855 10.9988 0.332656 11.0065 0.324212 11.0139C0.309597 11.0266 0.295042 11.0394 0.281317 11.0529C0.273487 11.0607 0.266211 11.069 0.258657 11.077C0.245638 11.0908 0.232589 11.1046 0.22046 11.1191C0.212078 11.1291 0.204401 11.1398 0.196419 11.1501C0.186317 11.1633 0.176031 11.1764 0.166667 11.1901C0.157454 11.2034 0.149165 11.2174 0.140689 11.2312C0.133628 11.2427 0.126289 11.254 0.119749 11.2657C0.110721 11.282 0.102708 11.2987 0.0946322 11.3155C0.0896581 11.3258 0.0843767 11.336 0.0797711 11.3464C0.0721861 11.3638 0.0656468 11.3816 0.0590453 11.3995C0.0550535 11.4104 0.0507247 11.4211 0.0471328 11.4321C0.0417249 11.4487 0.0373059 11.4656 0.0327947 11.4826C0.0292329 11.4959 0.0254875 11.5092 0.0224817 11.5228C0.0193186 11.5372 0.0169564 11.5519 0.0144687 11.5666C0.011576 11.5835 0.00872655 11.6003 0.00676082 11.6174C0.00534845 11.6295 0.00458194 11.6418 0.00362989 11.654C0.00209427 11.6739 0.000896543 11.6938 0.000619856 11.7138C0.000583384 11.7181 2.72483e-09 11.7221 2.72483e-09 11.7264V63.0542C-9.41264e-06 63.1784 0.0243816 63.3014 0.0717811 63.4161C0.119181 63.5309 0.18866 63.6352 0.276251 63.723C0.363842 63.8108 0.467829 63.8805 0.582273 63.928C0.696718 63.9756 0.819379 64 0.943252 64H38.7991C39.3826 63.9993 39.942 63.7666 40.3546 63.3529C40.7672 62.9391 40.9993 62.3782 41 61.793V12.9875C40.9993 12.4024 40.7672 11.8414 40.3546 11.4277C39.942 11.014 39.3826 10.7812 38.7991 10.7806ZM29.2546 1.91241C29.3022 1.89419 29.3534 1.88785 29.404 1.89392C29.4546 1.9 29.503 1.91831 29.5449 1.94729C29.5869 1.97626 29.6212 2.01503 29.6449 2.06025C29.6686 2.10547 29.681 2.15579 29.681 2.20688V10.7806H6.06395L29.2546 1.91241ZM39.1135 61.793C39.1134 61.8766 39.0803 61.9568 39.0213 62.0159C38.9624 62.075 38.8824 62.1082 38.7991 62.1083H1.8865V12.6722H38.7991C38.8824 12.6723 38.9624 12.7056 39.0213 12.7647C39.0803 12.8238 39.1134 12.9039 39.1135 12.9875V61.793ZM34.3972 45.2H17.5445C17.2943 45.2 17.0544 45.2997 16.8775 45.477C16.7006 45.6544 16.6012 45.895 16.6012 46.1459C16.6012 46.3967 16.7006 46.6373 16.8775 46.8147C17.0544 46.992 17.2943 47.0917 17.5445 47.0917H34.3972C34.6474 47.0917 34.8873 46.992 35.0642 46.8147C35.2411 46.6373 35.3405 46.3967 35.3405 46.1459C35.3405 45.895 35.2411 45.6544 35.0642 45.477C34.8873 45.2997 34.6474 45.2 34.3972 45.2ZM11.885 39.9033H6.60276C6.47889 39.9033 6.35623 39.9277 6.24178 39.9753C6.12734 40.0228 6.02335 40.0925 5.93576 40.1803C5.84817 40.2681 5.77869 40.3724 5.73129 40.4872C5.68389 40.6019 5.6595 40.7249 5.65951 40.8491V46.1459C5.6595 46.2701 5.68389 46.3931 5.73129 46.5078C5.77869 46.6226 5.84817 46.7269 5.93576 46.8147C6.02335 46.9025 6.12734 46.9722 6.24178 47.0197C6.35623 47.0672 6.47889 47.0917 6.60276 47.0917H11.885C12.0088 47.0917 12.1315 47.0672 12.2459 47.0197C12.3604 46.9722 12.4644 46.9025 12.552 46.8147C12.6396 46.7269 12.709 46.6226 12.7564 46.5078C12.8038 46.3931 12.8282 46.2701 12.8282 46.1459V40.8491C12.8282 40.7249 12.8038 40.6019 12.7564 40.4872C12.709 40.3724 12.6396 40.2681 12.552 40.1803C12.4644 40.0925 12.3604 40.0228 12.2459 39.9753C12.1315 39.9277 12.0088 39.9033 11.885 39.9033ZM10.9417 45.2H7.54601V41.795H10.9417V45.2ZM34.3972 51.1365H17.5445C17.2943 51.1365 17.0544 51.2362 16.8775 51.4136C16.7006 51.5909 16.6012 51.8315 16.6012 52.0824C16.6012 52.3332 16.7006 52.5738 16.8775 52.7512C17.0544 52.9286 17.2943 53.0282 17.5445 53.0282H34.3972C34.6474 53.0282 34.8873 52.9286 35.0642 52.7512C35.2411 52.5738 35.3405 52.3332 35.3405 52.0824C35.3405 51.8315 35.2411 51.5909 35.0642 51.4136C34.8873 51.2362 34.6474 51.1365 34.3972 51.1365Z" fill="#944131"/>
</svg>
